<svg height="496pt" viewBox="-80 0 496 496" width="496pt" xmlns="http://www.w3.org/2000/svg"><path d="m328 344v144h-320v-144c0-35.347656 28.652344-64 64-64h192c35.347656 0 64 28.652344 64 64zm0 0" fill="#91cc04"/><path d="m296 136c0 40.800781-42.640625 101.039062-78.640625 144.800781-12.15625 14.730469-30.257813 23.261719-49.359375 23.261719s-37.203125-8.53125-49.359375-23.261719c-36-43.761719-78.640625-104-78.640625-144.800781 0-70.691406 57.308594-128 128-128s128 57.308594 128 128zm0 0" fill="#9cdd05"/><path d="m137.839844 169.847656s-37.847656 7.320313-56.535156-11.480468c-18.6875-18.800782-11.144532-56.597657-11.144532-56.597657s37.847656-7.320312 56.535156 11.476563c18.6875 18.800781 11.144532 56.601562 11.144532 56.601562zm0 0" fill="#ffda44"/><path d="m197.960938 170.03125s37.800781 7.542969 56.597656-11.144531c18.800781-18.6875 11.480468-56.535157 11.480468-56.535157s-37.800781-7.542968-56.597656 11.144532c-18.800781 18.6875-11.480468 56.535156-11.480468 56.535156zm0 0" fill="#ffda44"/><g fill="#231f20"><path d="m145.679688 171.414062c.34375-1.710937 8.136718-42.230468-13.3125-63.804687-21.445313-21.578125-62.015626-14.007813-63.726563-13.699219-3.1875.621094-5.683594 3.105469-6.320313 6.289063-.34375 1.710937-8.136718 42.234375 13.3125 63.808593 12.59375 10.746094 28.859376 16.195313 45.382813 15.199219 6.148437.023438 12.285156-.492187 18.34375-1.542969 3.175781-.613281 5.671875-3.078124 6.320313-6.25zm-14.910157-8.621093c-11.921875 1.222656-32.9375.855469-43.785156-10.066407-11.617187-11.679687-10.863281-33.597656-9.761719-43.855468 10.28125-1.054688 32.191406-1.664063 43.792969 10.015625 11.601563 11.679687 10.863281 33.671875 9.753906 43.90625zm0 0"/><path d="m196.390625 177.871094c6.265625 1.132812 12.621094 1.691406 18.984375 1.664062 16.304688.957032 32.347656-4.410156 44.800781-14.976562 21.601563-21.445313 14.03125-62.007813 13.695313-63.726563-.617188-3.191406-3.101563-5.691406-6.285156-6.328125-1.722657-.34375-42.234376-8.136718-63.808594 13.320313-21.578125 21.457031-14.035156 62.007812-13.699219 63.726562.625 3.195313 3.121094 5.695313 6.3125 6.320313zm18.6875-58.671875c11.707031-11.632813 33.691406-10.839844 43.90625-9.742188 1.230469 11.917969.855469 32.925781-10.0625 43.789063-11.691406 11.617187-33.601563 10.851562-43.859375 9.753906-1.0625-10.296875-1.664062-32.214844 10.015625-43.800781zm0 0"/><path d="m128 248c0 4.417969 3.582031 8 8 8h64c4.417969 0 8-3.582031 8-8s-3.582031-8-8-8h-64c-4.417969 0-8 3.582031-8 8zm0 0"/><path d="m144 200v8c0 4.417969 3.582031 8 8 8s8-3.582031 8-8v-8c0-4.417969-3.582031-8-8-8s-8 3.582031-8 8zm0 0"/><path d="m184 216c4.417969 0 8-3.582031 8-8v-8c0-4.417969-3.582031-8-8-8s-8 3.582031-8 8v8c0 4.417969 3.582031 8 8 8zm0 0"/><path d="m264 272h-29.289062c45.96875-58.113281 69.289062-103.832031 69.289062-136 0-75.109375-60.890625-136-136-136s-136 60.890625-136 136c0 32.167969 23.320312 77.886719 69.289062 136h-29.289062c-39.746094.046875-71.953125 32.253906-72 72v144c0 4.417969 3.582031 8 8 8h320c4.417969 0 8-3.582031 8-8v-144c-.046875-39.746094-32.253906-71.953125-72-72zm-96-256c66.242188.074219 119.925781 53.757812 120 120 0 30.007812-27.289062 79.625-76.800781 139.703125-10.636719 12.878906-26.46875 20.339844-43.175781 20.339844-16.703126 0-32.539063-7.460938-43.175782-20.339844-49.558594-60.078125-76.847656-109.695313-76.847656-139.703125.074219-66.242188 53.757812-119.925781 120-120zm152 464h-56v-104c0-4.417969-3.582031-8-8-8s-8 3.582031-8 8v104h-160v-104c0-4.417969-3.582031-8-8-8s-8 3.582031-8 8v104h-56v-136c.035156-30.914062 25.085938-55.964844 56-56h42.398438c13.601562 15.328125 33.109374 24.097656 53.601562 24.097656s40-8.769531 53.601562-24.097656h42.398438c30.914062.035156 55.964844 25.085938 56 56zm0 0"/></g></svg>