<svg height="496pt" viewBox="-68 0 496 496" width="496pt" xmlns="http://www.w3.org/2000/svg"><path d="m77.519531 280h-5.519531c-2.675781-.003906-5.34375.160156-8 .480469-31.992188 4.058593-55.984375 31.269531-56 63.519531v144h320v-144c-.015625-32.25-24.007812-59.460938-56-63.519531-2.65625-.320313-5.324219-.484375-8-.480469h-5.519531" fill="#acabb1"/><path d="m312 168c.046875 19.242188-3.820312 38.296875-11.359375 56-25.238281 59.84375-87.410156 95.386719-151.785156 86.769531-64.371094-8.613281-115.011719-59.253906-123.625-123.625-8.617188-64.375 26.925781-126.546875 86.769531-151.785156h112c53.3125 22.523437 87.972656 74.765625 88 132.640625zm0 0" fill="#acabb1"/><path d="m312 168c-1.535156 19.527344-10.054688 37.847656-24 51.601562-31.0625 33.265626-74.484375 52.226563-120 52.398438-79.519531 0-144-59.839844-144-104s64.480469-80 144-80c50.078125 0 94.238281 14.238281 120 35.839844 14.222656 10.371094 23.035156 26.582031 24 44.160156zm0 0" fill="#1a6fb0"/><path d="m264.265625 198.136719c-6.128906 6.714843-13.007813 12.710937-20.496094 17.863281" fill="#acabb1"/><path d="m352 128v80c-.027344 8.824219-7.175781 15.972656-16 16h-35.359375l11.28125-59.039062c-.082031-2.320313-.160156-4.640626-.320313-6.960938-.160156-2.320312-.320312-4.640625-.640624-6.878906-.320313-2.242188-.5625-4.402344-.882813-6.5625-.476563-2.636719-.957031-5.277344-1.597656-7.917969-.402344-1.921875-.800781-3.761719-1.359375-5.679687-.5625-2.160157-1.199219-4.320313-1.839844-6.402344-.160156-.480469-.320312-.957032-.480469-1.359375-1.199219-3.839844-2.640625-7.519531-4.160156-11.199219h35.359375c8.824219.027344 15.972656 7.175781 16 16zm0 0" fill="#3e3d42"/><path d="m311.921875 171.121094c.078125-1.042969.078125-2.082032.078125-3.121094s0-2.078125-.078125-3.039062c-1.984375-16.414063-10.636719-31.285157-23.921875-41.121094" fill="#acabb1"/><path d="m224 40h-112l16-32h88zm0 0" fill="#3e3d42"/><path d="m96 344h144v144h-144zm0 0" fill="#787680"/><path d="m120 368h48v96h-48zm0 0" fill="#2d2d30"/><path d="m312 32h24v80h-24zm0 0" fill="#d80027"/><path d="m64 267.519531v12.960938c-15.472656 1.953125-29.699219 9.492187-40 21.199219v-53.679688h24.320312zm0 0" fill="#2d2d30"/><path d="m272 267.519531v12.960938c15.472656 1.953125 29.699219 9.492187 40 21.199219v-53.679688h-24.320312zm0 0" fill="#2d2d30"/><g fill="#231f20"><path d="m258.320312 192.800781c-5.722656 6.253907-12.136718 11.839844-19.121093 16.648438-3.625 2.523437-4.523438 7.507812-2 11.136719 2.523437 3.625 7.507812 4.519531 11.136719 2 8-5.5 15.339843-11.902344 21.871093-19.082032 1.980469-2.113281 2.664063-5.132812 1.789063-7.890625-.878906-2.761719-3.179688-4.832031-6.015625-5.414062-2.835938-.585938-5.765625.410156-7.660157 2.601562zm0 0"/><path d="m272.574219 142.222656c-22.230469-18.636718-62.300781-30.222656-104.574219-30.222656-4.417969 0-8 3.582031-8 8s3.582031 8 8 8c38.679688 0 74.816406 10.152344 94.304688 26.496094 4.75 3.1875 8.195312 7.984375 9.695312 13.503906 0 4.417969 3.582031 8 8 8s8-3.582031 8-8c-1.273438-10.382812-6.875-19.746094-15.425781-25.777344zm0 0"/><path d="m344 105.472656v-73.472656c0-4.417969-3.582031-8-8-8h-24c-4.417969 0-8 3.582031-8 8v68.527344c-15.78125-31.714844-42.105469-56.953125-74.464844-71.375l-5.773437-23.089844c-.890625-3.5625-4.089844-6.0625-7.761719-6.0625h-88c-3.03125 0-5.804688 1.710938-7.160156 4.425781l-11.761719 23.519531c-.0625 0-.125 0-.183594 0-39.464843 16.601563-70.082031 49.101563-84.300781 89.488282-14.21875 40.386718-10.714844 84.902344 9.644531 122.566406h-10.238281c-4.417969 0-8 3.582031-8 8v50.878906c-10.324219 12.777344-15.96875 28.695313-16 45.121094v144c0 4.417969 3.582031 8 8 8h320c4.417969 0 8-3.582031 8-8v-144c-.03125-16.425781-5.675781-32.34375-16-45.121094v-50.878906c0-4.417969-3.582031-8-8-8h-10.152344c1.441406-2.671875 2.609375-5.335938 3.839844-8h30.3125c13.253906 0 24-10.746094 24-24v-80c-.042969-10.132812-6.445312-19.148438-16-22.527344zm-24-65.472656h8v64h-8zm-18.710938 114.089844c.546876 1.339844 1.019532 2.714844 1.414063 4.109375.222656.726562.386719 1.464843.488281 2.214843.039063.296876.097656.59375.167969.882813.117187.445313.195313.898437.242187 1.359375.132813.929688.269532 1.847656.351563 2.953125.054687.757813.046875 1.597656.046875 2.398437 0 .800782 0 1.601563-.054688 2.457032v.152344c-2.359374 16.539062-10.042968 31.859374-21.890624 43.640624-29.566407 31.550782-70.816407 49.539063-114.054688 49.742188-77.601562 0-136-58.230469-136-96 0-39.03125 62.28125-72 136-72 46.550781 0 89.496094 12.703125 114.800781 33.921875 1.519531 1.292969 3.039063 2.589844 4.910157 4.460937 1.28125 1.273438 2.5625 2.546876 3.730468 3.929688l.75.871094c.550782.640625 1.089844 1.230468 1.746094 2.136718 3.09375 3.851563 5.574219 8.15625 7.351562 12.769532zm-168.34375-138.089844h76.796876l4 16h-88.796876zm-25.664062 30.398438c1.359375 1.03125 3.015625 1.59375 4.71875 1.601562h112c1.632812-.050781 3.207031-.609375 4.503906-1.601562 29.050782 14.445312 52 38.777343 64.71875 68.625.5625 1.375 1.113282 2.832031 1.671875 4.28125-.605469-.527344-1.140625-1.066407-1.757812-1.601563-28.152344-23.597656-74.9375-37.703125-125.136719-37.703125-53.648438 0-99.945312 15.328125-126.910156 38.984375 12.199218-31.628906 35.816406-57.53125 66.191406-72.585937zm-55.441406 188.480468c2.753906 2.511719 5.648437 4.960938 8.65625 7.34375.582031.464844 1.175781.914063 1.769531 1.378906 3.078125 2.398438 6.261719 4.679688 9.597656 6.886719.382813.253907.800781.496094 1.175781.75 3.242188 2.136719 6.582032 4.160157 10.015626 6.082031.433593.238282.847656.496094 1.28125.726563 3.566406 1.96875 7.257812 3.808594 11.015624 5.601563l2.207032 1.007812c3.769531 1.6875 7.617187 3.273438 11.554687 4.71875.605469.226562 1.222657.425781 1.824219.640625 3.917969 1.382813 7.894531 2.664063 11.949219 3.785156l.9375.277344c4.183593 1.128906 8.449219 2.074219 12.75 2.898437.800781.160157 1.601562.320313 2.464843.464844 4.269532.75 8.554688 1.339844 12.863282 1.765625.800781.082031 1.601562.128907 2.335937.191407 4.554688.386718 9.136719.640624 13.777344.640624 3.410156 0 6.777344-.109374 10.113281-.3125 1.128906-.070312 2.230469-.207031 3.351563-.292968 2.183593-.175782 4.367187-.355469 6.511719-.609375 1.304687-.152344 2.574218-.367188 3.855468-.550781 1.929688-.28125 3.855469-.554688 5.753906-.890626 1.34375-.238281 2.664063-.535156 4-.796874 1.78125-.371094 3.574219-.730469 5.328126-1.152344 1.34375-.3125 2.664062-.671875 4-1.027344 1.695312-.445312 3.382812-.894531 5.046874-1.382812 1.320313-.390626 2.625-.800782 3.917969-1.230469 1.601563-.519531 3.203125-1.039063 4.800781-1.601563 1.289063-.457031 2.550782-.925781 3.816407-1.40625 1.550781-.59375 3.082031-1.191406 4.59375-1.816406 1.242187-.535156 2.46875-1.066406 3.6875-1.601562 1.480469-.648438 2.933593-1.3125 4.382812-2 1.183594-.558594 2.398438-1.121094 3.527344-1.695313 1.425781-.710937 2.816406-1.441406 4.199219-2.175781 1.128906-.601563 2.25-1.191406 3.355468-1.808594 1.359376-.800781 2.6875-1.542969 4-2.335938 1.0625-.625 2.125-1.253906 3.199219-1.894531 1.304688-.800781 2.566407-1.648437 3.832031-2.480469.984376-.648437 1.984376-1.289062 2.933594-1.945312 1.273438-.878906 2.496094-1.765625 3.722656-2.664062.886719-.640626 1.789063-1.277344 2.65625-1.925782 1.277344-.96875 2.496094-1.953125 3.726563-2.9375.734375-.59375 1.503906-1.175781 2.222656-1.777344 1.496094-1.246093 2.921875-2.503906 4.335938-3.765624.386719-.34375.800781-.6875 1.183593-1.03125 1.703126-1.554688 3.335938-3.109376 4.898438-4.671876-2.351562 4.554688-4.945312 8.980469-7.777344 13.253907-4.4375 6.625-9.453125 12.839843-14.992187 18.578125-3.785157 3.992187-7.8125 7.746094-12.0625 11.238281-.21875.144531-.429688.296875-.632813.464844-24.21875 19.53125-54.390625 30.191406-85.503906 30.207031-3.878906 0-7.738281-.164062-11.585938-.496094-4.175781-.359375-8.308593-.953125-12.414062-1.695312-22.523438-4.039063-43.667969-13.6875-61.480469-28.046875-4.53125-3.644531-8.808593-7.59375-12.800781-11.816407-5.503906-5.644531-10.453125-11.808593-14.773438-18.402343-2.816406-4.191407-5.390624-8.535157-7.722656-13.015625 1.082032 1.082031 2.226563 2.128906 3.351563 3.199218.441406.363282.839843.761719 1.265625 1.152344zm-19.839844 21.121094h12.078125c1.496094 2.136719 3.097656 4.207031 4.730469 6.257812.253906.335938.496094.679688.800781 1.015626 2.054687 2.542968 4.191406 5.039062 6.398437 7.445312v3.058594c-.96875.214844-1.902343.527344-2.855468.796875-.953125.273437-2.128906.546875-3.199219.882812-1.074219.335938-1.976563.71875-2.960937 1.085938-.984376.367187-2.128907.753906-3.160157 1.191406-1.03125.441406-1.878906.890625-2.816406 1.335937-.9375.449219-2.054687.953126-3.054687 1.488282-1 .539062-1.847657 1.082031-2.769532 1.601562-.917968.519532-1.886718 1.097656-2.800781 1.695313l-.390625.273437zm200 224h-128v-128h128zm88 0h-40v-128c0-4.417969-3.582031-8-8-8s-8 3.582031-8 8v128h-16v-136c0-4.417969-3.582031-8-8-8h-144c-4.417969 0-8 3.582031-8 8v136h-16v-128c0-4.417969-3.582031-8-8-8s-8 3.582031-8 8v128h-40v-136c.007812-13.636719 4.988281-26.800781 14-37.03125 1.136719-1.28125 2.3125-2.503906 3.542969-3.671875 1.351562-1.273437 2.769531-2.472656 4.242187-3.601563 6.535156-5.066406 14.113282-8.617187 22.191406-10.398437 1.640626-.367187 3.304688-.65625 4.992188-.863281 2.332031-.292969 4.679688-.433594 7.03125-.433594h2.726562c1.457032 1.128906 3 2.121094 4.488282 3.199219 1.488281 1.082031 3.105468 2.289062 4.714844 3.351562 1.949218 1.296875 4 2.472657 5.964843 3.671875 1.640625.984375 3.25 2.007813 4.921875 2.929688 2.070313 1.136718 4.207032 2.144531 6.328125 3.199218 1.679688.800782 3.335938 1.703126 5.054688 2.464844 2.191406.976563 4.441406 1.808594 6.671875 2.679688 1.714844.664062 3.394531 1.390625 5.128906 2 2.3125.800781 4.671875 1.464844 7.023438 2.152344 1.710937.511718 3.402343 1.085937 5.128906 1.535156 2.480468.640625 5 1.113281 7.511718 1.601562 1.640626.335938 3.265626.75 4.921876 1.039063 2.789062.472656 5.597656.800781 8.445312 1.085937 1.402344.160156 2.785156.410156 4.191406.53125 4.242188.359375 8.503906.550782 12.800782.550782 4.296874 0 8.503906-.183594 12.730468-.542969 1.367188-.121094 2.726563-.359375 4.09375-.511719 2.839844-.320312 5.679688-.617188 8.488282-1.097656 1.601562-.273438 3.238281-.6875 4.863281-1.023438 2.511719-.511718 5.03125-.976562 7.519531-1.601562 1.714844-.4375 3.378906-1.015625 5.074219-1.511719 2.351562-.6875 4.710937-1.335937 7.03125-2.136719 1.71875-.597656 3.398437-1.328125 5.105469-1.992187 2.222656-.863281 4.46875-1.679688 6.644531-2.644531 1.714843-.761719 3.363281-1.640626 5.042969-2.457032 2.109374-1.03125 4.238281-2.015625 6.304687-3.144531 1.664063-.914063 3.261719-1.9375 4.886719-2.902344 2.007812-1.195312 4-2.355469 5.976562-3.640625 1.597656-1.058594 3.125-2.21875 4.6875-3.335937 1.558594-1.121094 3.253906-2.226563 4.800782-3.441407h2.726562c2.339844-.003906 4.675781.136719 7 .417969 13.539062 1.707031 25.988281 8.304688 35 18.550781 9.015625 10.226563 13.992188 23.390626 14 37.023438zm-16-195.871094c-.128906-.089844-.273438-.160156-.40625-.25-.90625-.597656-1.859375-1.125-2.792969-1.6875-.9375-.558594-1.839843-1.136718-2.792969-1.648437-.953124-.511719-1.945312-.949219-2.929687-1.421875-.980469-.472656-1.949219-.976563-2.949219-1.402344-1-.421875-1.960937-.742188-2.945312-1.109375-.984375-.371094-2.105469-.800781-3.199219-1.167969-1.097656-.371094-2-.5625-3-.800781-1-.242187-1.984375-.601563-3-.800781v-3.121094c2.136719-2.304688 4.207031-4.710938 6.238281-7.199219l.394532-.527343c1.796874-2.238282 3.566406-4.535157 5.304687-6.976563h12.078125zm40-76.128906c0 4.417969-3.582031 8-8 8h-23.761719c.152344-.457031.257813-.921875.402344-1.375.390625-1.191406.703125-2.402344 1.054687-3.59375.921876-3.078125 1.753907-6.175781 2.464844-9.304688.304688-1.328124.582032-2.664062.855469-4 .640625-3.246093 1.171875-6.503906 1.601563-9.773437.144531-1.113281.320312-2.210937.4375-3.328125.457031-4.289062.800781-8.59375.847656-12.90625v-.175781c0-.09375 0-.191407 0-.285157v-.058593c.097656-1.0625.097656-2.128907.097656-3.199219 0-1.257812 0-2.519531-.078125-3.039062.015625-2.507813-.09375-5.015626-.335937-7.511719-.179688-2.519531-.363282-5.035157-.675782-7.203125-.246094-2.34375-.582031-4.605469-.957031-7.109375-.503906-2.800781-1.015625-5.601563-1.601563-8.144531-.449218-2.128907-.886718-4.152344-1.449218-6.054688-.589844-2.273438-1.261719-4.546875-1.992188-6.890625-.109375-.390625-.246094-.777344-.40625-1.152344-.097656-.300781-.183594-.605469-.28125-.902343h23.777344c4.417969 0 8 3.582031 8 8zm0 0"/><path d="m120 472h48c4.417969 0 8-3.582031 8-8v-96c0-4.417969-3.582031-8-8-8h-48c-4.417969 0-8 3.582031-8 8v96c0 4.417969 3.582031 8 8 8zm8-96h32v80h-32zm0 0"/><path d="m192 424h24c4.417969 0 8-3.582031 8-8s-3.582031-8-8-8h-24c-4.417969 0-8 3.582031-8 8s3.582031 8 8 8zm0 0"/><path d="m192 376h24c4.417969 0 8-3.582031 8-8s-3.582031-8-8-8h-24c-4.417969 0-8 3.582031-8 8s3.582031 8 8 8zm0 0"/><path d="m192 472h24c4.417969 0 8-3.582031 8-8s-3.582031-8-8-8h-24c-4.417969 0-8 3.582031-8 8s3.582031 8 8 8zm0 0"/></g></svg>