<?xml version="1.0" encoding="iso-8859-1"?>
<!-- Generator: Adobe Illustrator 19.0.0, SVG Export Plug-In . SVG Version: 6.00 Build 0)  -->
<svg version="1.1" id="Layer_1" xmlns="http://www.w3.org/2000/svg" xmlns:xlink="http://www.w3.org/1999/xlink" x="0px" y="0px"
	 viewBox="0 0 511.991 511.991" style="enable-background:new 0 0 511.991 511.991;" xml:space="preserve">
<path style="fill:#434A54;" d="M12.946,474.675c-1.672,0-2.719-0.062-2.938-0.062c-5.875-0.375-10.343-5.438-9.984-11.311
	c0.375-5.891,5.422-10.359,11.312-9.984c0.031,0,5.797,0.297,13.062-0.984c6.141-1.094,14.75-3.594,20.781-9.312
	c5.484-5.188,8.156-12.297,8.156-21.719v-53.342c0-5.891,4.781-10.656,10.672-10.656c5.89,0,10.671,4.766,10.671,10.656v53.342
	c0,15.453-5.031,28.016-14.953,37.328C44.117,473.3,21.086,474.675,12.946,474.675z"/>
<g>
	<path style="fill:#656D78;" d="M479.992,90.641c-5.891,0-10.672-4.781-10.672-10.671V69.314c0-5.891,4.781-10.672,10.672-10.672
		s10.656,4.781,10.656,10.672V79.97C490.648,85.86,485.883,90.641,479.992,90.641z"/>
	<rect x="213.326" y="122.635" style="fill:#656D78;" width="213.32" height="31.999"/>
</g>
<polygon style="fill:#ED5564;" points="178.55,152.436 134.989,164.467 148.019,207.965 213.33,207.965 235.36,165.311 "/>
<path style="fill:#CCD1D9;" d="M74.678,69.314c-5.906,0-10.671-4.781-10.671-10.672V47.971c0-5.89,4.765-10.656,10.671-10.656
	c5.875,0,10.656,4.766,10.656,10.656v10.671C85.334,64.533,80.553,69.314,74.678,69.314z"/>
<path style="fill:#656D78;" d="M80.006,282.636H48.007c-5.891,0-10.671,4.766-10.671,10.67v74.654
	c0,5.891,4.781,10.672,10.671,10.672h31.999c5.89,0,10.671-4.781,10.671-10.672v-74.654
	C90.678,287.401,85.896,282.636,80.006,282.636z"/>
<path style="fill:#AAB2BC;" d="M501.32,69.314H64.007c-5.891,0-10.672,4.766-10.672,10.656v42.67
	c0,5.891,4.781,10.672,10.672,10.672H501.32c5.891,0,10.671-4.781,10.671-10.672V79.97C511.991,74.079,507.211,69.314,501.32,69.314
	z"/>
<path style="fill:#E6E9ED;" d="M319.982,99.219c-0.562-2.781-2.203-5.219-4.562-6.797l-64.185-42.67
	c-1.75-1.156-3.796-1.781-5.906-1.781H53.335c-4.031,0-7.734,2.281-9.531,5.906l-7.718,15.437h-14.75
	c-4.891,0-9.156,3.328-10.344,8.078L0.321,120.046c-1.422,5.688,2.016,11.469,7.703,12.922c0.141,0.047,14.968,3.89,30.577,10.343
	c23.796,9.828,30.405,17.609,32.249,21.156L0.931,320.946c-1.469,3.297-1.172,7.125,0.797,10.156s5.328,4.859,8.953,4.859h42.655
	c0.703,0,1.391-0.062,2.078-0.203l53.686-10.672c3.688-0.719,6.718-3.344,7.968-6.891l50.467-142.23h99.136
	c3.547,0,6.875-1.766,8.859-4.734l42.858-63.998C319.951,104.891,320.529,102,319.982,99.219z"/>
<g>
	<path style="fill:#CCD1D9;" d="M180.175,52.798c0.797-1.546,1.156-3.203,1.156-4.828h-22.624l-8.562,16.859
		c-2.672,5.25-0.578,11.671,4.672,14.343c1.547,0.781,3.203,1.156,4.828,1.156c3.891,0,7.641-2.141,9.516-5.843L180.175,52.798z"/>
	<path style="fill:#CCD1D9;" d="M187.175,79.173c1.547,0.781,3.187,1.156,4.812,1.156c3.891,0,7.641-2.141,9.516-5.843
		l11.015-21.688c0.797-1.546,1.156-3.203,1.156-4.828h-22.625l-8.562,16.859C179.815,70.079,181.909,76.501,187.175,79.173z"/>
	<path style="fill:#CCD1D9;" d="M219.517,79.173c1.546,0.781,3.203,1.156,4.828,1.156c3.875,0,7.625-2.141,9.516-5.843
		l11.015-21.688c0.781-1.531,1.141-3.171,1.141-4.796c-0.219-0.016-0.453-0.031-0.688-0.031h-21.937l-8.546,16.859
		C212.174,70.079,214.267,76.501,219.517,79.173z"/>
	<path style="fill:#CCD1D9;" d="M156.394,143.967l-6.422,21.344L87.88,215.997l18.796,27.546c0,0,15.546,0.312,36.64,0.672
		l24.218-68.248h99.136c3.547,0,6.875-1.766,8.859-4.734l18.265-27.265h-137.4V143.967z"/>
</g>
<path style="fill:#AAB2BC;" d="M40.179,143.967c22.5,9.516,28.874,17.031,30.671,20.5L0.931,320.946
	c-1.469,3.297-1.172,7.125,0.797,10.156s5.328,4.859,8.953,4.859h42.655c0.703,0,1.391-0.062,2.078-0.203l53.686-10.672
	c3.688-0.719,6.718-3.344,7.968-6.891l50.467-142.23l-11.14-31.999L40.179,143.967L40.179,143.967z"/>
<g>
</g>
<g>
</g>
<g>
</g>
<g>
</g>
<g>
</g>
<g>
</g>
<g>
</g>
<g>
</g>
<g>
</g>
<g>
</g>
<g>
</g>
<g>
</g>
<g>
</g>
<g>
</g>
<g>
</g>
</svg>
