<?xml version="1.0" encoding="iso-8859-1"?>
<!-- Generator: Adobe Illustrator 19.0.0, SVG Export Plug-In . SVG Version: 6.00 Build 0)  -->
<svg version="1.1" id="Layer_1" xmlns="http://www.w3.org/2000/svg" xmlns:xlink="http://www.w3.org/1999/xlink" x="0px" y="0px"
	 viewBox="0 0 512 512" style="enable-background:new 0 0 512 512;" xml:space="preserve">
<path style="fill:#464655;" d="M485.517,204.662h17.655c4.875,0,8.828-3.953,8.828-8.828v-8.828c0-4.875-3.953-8.828-8.828-8.828
	h-17.655V204.662z"/>
<path style="fill:#FF6464;" d="M498.759,151.696h-13.241v13.241h13.241c2.438,0,4.414-1.976,4.414-4.414v-4.414
	C503.172,153.671,501.196,151.696,498.759,151.696z"/>
<rect x="361.931" y="169.346" style="fill:#5B5D6E;" width="79.448" height="17.655"/>
<g>
	<path style="fill:#464655;" d="M414.897,160.524L414.897,160.524c4.875,0,8.828,3.953,8.828,8.828v17.655h-17.655v-17.655
		C406.069,164.476,410.022,160.524,414.897,160.524z"/>
	<path style="fill:#464655;" d="M489.173,137.697l-7.313-7.313c-3.31-3.31-7.8-5.171-12.483-5.171h-23.584
		c-2.438,0-4.414,1.976-4.414,4.414v4.414c0,2.438-1.976,4.414-4.414,4.414H201.471c-11.039,0-21.803,3.449-30.785,9.865
		l-29.444,21.032h221.547c0.434-0.942,0.981-1.838,1.728-2.585l9.898-9.899c3.311-3.31,7.801-5.171,12.484-5.171h45.653
		c4.875,0,8.828,3.953,8.828,8.828v8.828h52.966v-19.169C494.345,145.499,492.484,141.008,489.173,137.697z"/>
	<path style="fill:#464655;" d="M204.928,319.42l-23.901,40.632c-2.472,4.202-1.069,9.613,3.134,12.085l22.834,13.429
		c4.202,2.472,9.612,1.068,12.084-3.134l37.065-63.012H204.928z"/>
	<rect x="326.621" y="248.794" style="fill:#464655;" width="105.931" height="17.655"/>
</g>
<path style="fill:#5B5D6E;" d="M273.655,275.282h46.079c4.409,0,8.639-1.751,11.757-4.87l6.303-6.303
	c4.151-4.151,9.78-6.483,15.65-6.483h60.095c4.68,0,7.723,4.925,5.631,9.11l0,0c-1.963,3.926,0.892,8.545,5.281,8.545h8.858
	c5.007,0,9.647-2.627,12.223-6.921l22.329-37.217H291.31L273.655,275.282z"/>
<path style="fill:#AEB5CA;" d="M177.664,257.627h-18.767v-26.483h27.063c2.541,0,3.722,3.002,1.994,4.864
	c-3.136,3.378-6.022,8.515-4.728,15.412C183.839,254.695,180.996,257.627,177.664,257.627z"/>
<path style="fill:#707487;" d="M467.862,169.351h-26.483v8.828c0,4.875-3.953,8.828-8.828,8.828h-61.793
	c-4.875,0-8.828-3.953-8.828-8.828v-5.172c0-1.284,0.332-2.51,0.857-3.656H176.552H8.828c-4.875,0-8.828,3.953-8.828,8.828v61.793
	c0,4.875,3.953,8.828,8.828,8.828h35.076c5.977,0,11.893-1.214,17.388-3.569l44.202-18.943c6.648-2.849,14.561-0.548,18.568,5.905
	c3.733,6.01,2.194,13.939-2.808,18.941l-2.442,2.442c-2.684,2.684-4.917,5.782-6.614,9.176l-19.972,39.945
	c-5.869,11.74,2.667,25.551,15.791,25.551h130.574c15.641,0,30.114-8.278,38.044-21.76l34.078-57.935
	c6.345-10.786,17.923-17.408,30.436-17.408h144.369c4.875,0,8.828-3.953,8.828-8.828v-52.966H467.862z M243.115,241.601
	c-2.623,4.46-7.412,7.198-12.586,7.198c-5.985,0-11.522,3.167-14.557,8.326l-25.632,43.575c-3.605,6.129-10.184,9.892-17.294,9.892
	h-11.698c-6.828,0-11.071-7.418-7.609-13.303l18.426-31.326c2.332-3.965,2.303-9.223-0.856-12.565
	c-2.621-2.774-4.049-6.676-3.452-10.926c0.885-6.294,7.526-11.327,13.881-11.327h55.394
	C242.502,231.145,245.836,236.976,243.115,241.601z"/>
<path style="fill:#5B5D6E;" d="M8.828,231.145h26.251c5.977,0,11.893-1.214,17.387-3.569l45.139-19.346
	c5.494-2.355,11.41-3.569,17.387-3.569h185.146c4.875,0,8.828-3.953,8.828-8.828v-26.483H8.828V231.145z"/>
<path style="fill:#464655;" d="M0,178.179v61.793c0,4.875,3.953,8.828,8.828,8.828h8.828v-79.448H8.828
	C3.953,169.351,0,173.304,0,178.179z"/>
<path style="fill:#5B5D6E;" d="M247.164,313.239c-2.284,0-4.595-0.586-6.707-1.827c-6.302-3.706-8.405-11.828-4.698-18.13
	l33.551-57.043c3.706-6.293,11.837-8.388,18.13-4.698c6.302,3.706,8.405,11.828,4.698,18.13l-33.551,57.043
	C256.12,310.903,251.699,313.239,247.164,313.239z"/>
<path style="fill:#464655;" d="M167.724,204.662h52.966c4.875,0,8.828-3.953,8.828-8.828l0,0c0-4.875-3.953-8.828-8.828-8.828
	h-52.966c-4.875,0-8.828,3.953-8.828,8.828l0,0C158.897,200.709,162.849,204.662,167.724,204.662z"/>
<circle style="fill:#AEB5CA;" cx="220.69" cy="195.829" r="8.828"/>
<g>
	<path style="fill:#464655;" d="M282.483,209.076h-17.655c-4.875,0-8.828-3.953-8.828-8.828v-8.828c0-4.875,3.953-8.828,8.828-8.828
		h17.655c4.875,0,8.828,3.953,8.828,8.828v8.828C291.31,205.123,287.358,209.076,282.483,209.076z"/>
	<path style="fill:#464655;" d="M247.172,306.618c-1.768,0-3.448-0.707-4.681-1.94c-1.233-1.241-1.94-2.914-1.94-4.681
		c0-0.879,0.172-1.768,0.526-2.56c0.354-0.792,0.793-1.5,1.414-2.121c0.621-0.612,1.327-1.06,2.121-1.414
		c1.673-0.698,3.439-0.698,5.121,0c0.793,0.353,1.5,0.802,2.121,1.414c1.233,1.241,1.94,2.914,1.94,4.681
		c0,0.879-0.181,1.768-0.534,2.56c-0.353,0.792-0.793,1.5-1.405,2.121c-0.621,0.612-1.327,1.06-2.121,1.414
		C248.845,306.446,248.052,306.618,247.172,306.618z"/>
</g>
<rect x="361.931" y="204.656" style="fill:#5B5D6E;" width="52.966" height="17.655"/>
<path style="fill:#82B9FF;" d="M370.759,222.317h-8.828c-4.875,0-8.828-3.953-8.828-8.828l0,0c0-4.875,3.953-8.828,8.828-8.828
	h8.828c4.875,0,8.828,3.953,8.828,8.828l0,0C379.586,218.364,375.634,222.317,370.759,222.317z"/>
<path style="fill:#00DCC8;" d="M414.897,222.317h-8.828c-4.875,0-8.828-3.953-8.828-8.828l0,0c0-4.875,3.953-8.828,8.828-8.828
	h8.828c4.875,0,8.828,3.953,8.828,8.828l0,0C423.724,218.364,419.772,222.317,414.897,222.317z"/>
<g>
</g>
<g>
</g>
<g>
</g>
<g>
</g>
<g>
</g>
<g>
</g>
<g>
</g>
<g>
</g>
<g>
</g>
<g>
</g>
<g>
</g>
<g>
</g>
<g>
</g>
<g>
</g>
<g>
</g>
</svg>
