<?xml version="1.0" encoding="iso-8859-1"?>
<!-- Generator: Adobe Illustrator 19.0.0, SVG Export Plug-In . SVG Version: 6.00 Build 0)  -->
<svg version="1.1" id="Layer_1" xmlns="http://www.w3.org/2000/svg" xmlns:xlink="http://www.w3.org/1999/xlink" x="0px" y="0px"
	 viewBox="0 0 512.001 512.001" style="enable-background:new 0 0 512.001 512.001;" xml:space="preserve">
<g>
	<path style="fill:#464655;" d="M479.689,191.612h16.303c4.422,0,8.007,3.585,8.007,8.007V216c0,4.422-3.585,8.007-8.007,8.007
		h-26.994L479.689,191.612z"/>
	<path style="fill:#464655;" d="M479.689,190.969v-3.027c0-10.968-8.205-19.942-18.233-19.942H75.653
		c-10.028,0-20.827,8.513-23.999,18.919L37.326,238h397.015h31.705l13.952-47.032L479.689,190.969L479.689,190.969z"/>
</g>
<path style="fill:#707487;" d="M37.327,232l-4.529,14.764c-3.171,9.513,2.439,17.297,12.467,17.297
	c6.641-0.029,11.266,6.584,8.961,12.812L9.054,398.906c-3.483,9.404,1.872,17.098,11.9,17.098h60.777
	c10.028,0,21.082-7.694,24.565-17.098l49.886-134.845h-0.19h116.002v79.54c0,9.058,7.343,16.401,16.401,16.401h107.017
	c17.101,0,32.315-10.86,37.872-27.034l32.761-100.969h-31.705H37.327V232z"/>
<rect x="143.992" y="145.004" style="fill:#AEB5CA;" width="56.001" height="21"/>
<path style="fill:#FF6464;" d="M254.075,95.998h-29.081v48.001h29.081c5.479,0,9.92-3.644,9.92-8.14v-31.722
	C263.995,99.642,259.554,95.998,254.075,95.998z"/>
<path style="fill:#464655;" d="M101.859,95.998c-3.503,0-6.614,2.242-7.722,5.566l-10.574,31.722
	C81.805,138.557,85.728,144,91.284,144h140.71V95.999H101.859V95.998z"/>
<path d="M495.992,183.611h-8.435c-1.319-13.239-12.521-23.612-26.102-23.612H207.994v-8h47.861c8.899,0,16.14-7.24,16.14-16.14
	v-31.722c0-8.899-7.24-16.14-16.14-16.14H101.859c-6.958,0-13.111,4.435-15.311,11.036l-10.574,31.722
	c-1.636,4.908-0.807,10.344,2.218,14.542c3.025,4.197,7.919,6.702,13.093,6.702h44.708v8H75.653
	c-13.458,0-27.334,10.001-31.589,22.767c-0.021,0.061-0.04,0.122-0.059,0.184l-18.831,61.386c-2.292,6.97-1.414,14.007,2.417,19.322
	c3.849,5.34,10.291,8.403,17.673,8.403c0.015,0,0.031,0,0.043,0c0.649,0,1.03,0.35,1.236,0.645c0.207,0.296,0.406,0.777,0.179,1.39
	L1.552,396.128c-2.582,6.973-1.919,14.053,1.82,19.424s10.148,8.452,17.583,8.452h60.776c13.346,0,27.433-9.804,32.069-22.322
	l23.22-62.765h72.293c13.346,0,27.433-9.804,32.036-22.233l17.109-44.621h5.537v71.54c0,13.455,10.946,24.401,24.401,24.401h107.018
	c20.512,0,38.773-13.034,45.437-32.435c0.015-0.043,0.029-0.086,0.043-0.13l33.561-103.431h21.537
	c8.827,0,16.007-7.181,16.007-16.007V199.62C512,190.793,504.82,183.611,495.992,183.611z M255.995,104.138v31.722
	c0,0.077-0.063,0.14-0.14,0.14h-15.86v-32.001h15.86C255.933,103.998,255.995,104.061,255.995,104.138z M91.172,135.941
	c-0.042-0.059-0.037-0.073-0.02-0.126l10.574-31.722c0.019-0.057,0.072-0.095,0.132-0.095h122.135v32.001H91.284
	C91.228,135.998,91.213,135.998,91.172,135.941z M151.993,151.999h40.001v8h-40.001V151.999z M226.377,311.04
	c-2.302,6.215-10.435,11.876-17.063,11.876h-66.374l18.814-50.855h3.693c2.358,17.459,12.651,36.663,35.952,42.319
	c0.634,0.154,1.269,0.228,1.894,0.228c3.606,0,6.88-2.456,7.768-6.115c1.042-4.294-1.594-8.619-5.887-9.662
	c-16.613-4.033-21.921-17.341-23.565-26.77h59.715L226.377,311.04z M425.699,330.429c-4.462,12.906-16.624,21.573-30.285,21.573
	H288.396c-4.632,0-8.401-3.769-8.401-8.401v-79.541c0-4.418-3.582-8-8-8H155.993c-4.033,0-7.369,2.984-7.92,6.866L98.795,396.128
	c-2.302,6.215-10.435,11.876-17.063,11.876H20.954c-2.124,0-3.746-0.581-4.45-1.593c-0.705-1.012-0.686-2.735,0.052-4.728
	l0.737-1.99h64.438c4.419,0,8-3.582,8-8c0-4.418-3.581-8-8-8H23.215L61.728,279.65c1.994-5.385,1.219-11.409-2.072-16.115
	c-3.276-4.685-8.635-7.475-14.349-7.475c-0.018,0-0.037,0-0.055,0c-2.171-0.002-3.876-0.643-4.681-1.759
	c-0.805-1.118-0.873-2.943-0.184-5.008c0.021-0.061,0.04-0.122,0.059-0.184l2.795-9.11h364.757c4.418,0,8-3.581,8-8
	c0-4.419-3.582-8-8-8H48.15l11.122-36.253c2.138-6.267,9.769-11.748,16.382-11.748h385.803c5.642,0,10.233,4.59,10.233,10.232v2.459
	l-11.457,35.309h-20.234c-4.418,0-8,3.581-8,8c0,4.419,3.582,8,8,8h15.042L425.699,330.429z M495.992,216.007h-16.345l5.319-16.393
	l11.033,0.005L495.992,216.007z M431.998,264.001c0,4.418-3.582,8-8,8H303.996c-4.418,0-8-3.582-8-8s3.582-8,8-8h120.002
	C428.417,256.001,431.998,259.583,431.998,264.001z M423.998,296.002c0,4.418-3.582,8-8,8H303.996c-4.418,0-8-3.582-8-8
	c0-4.418,3.582-8,8-8h112.002C420.417,288.001,423.998,291.584,423.998,296.002z M407.998,328.002c0,4.418-3.582,8-8,8h-96.002
	c-4.418,0-8-3.582-8-8s3.582-8,8-8h96.002C404.417,320.002,407.998,323.584,407.998,328.002z"/>
<g>
</g>
<g>
</g>
<g>
</g>
<g>
</g>
<g>
</g>
<g>
</g>
<g>
</g>
<g>
</g>
<g>
</g>
<g>
</g>
<g>
</g>
<g>
</g>
<g>
</g>
<g>
</g>
<g>
</g>
</svg>
