<svg height="600pt" viewBox="-19 -135 600 600" width="600pt" xmlns="http://www.w3.org/2000/svg"><path d="m401.25 131.507812c0 4.835938 3.914062 8.75 8.75 8.75s8.75-3.914062 8.75-8.75v-49.414062h30v33.488281c0 4.828125 3.914062 8.75 8.75 8.75s8.75-3.921875 8.75-8.75v-33.488281h30v17.554688c0 4.832031 3.914062 8.75 8.75 8.75s8.75-3.917969 8.75-8.75v-17.554688h31.25v1.625c0 4.835938 3.914062 8.75 8.75 8.75s8.75-3.914062 8.75-8.75v-25.480469c0-4.835937-3.914062-8.75-8.75-8.75s-8.75 3.914063-8.75 8.75v6.355469h-31.25v-22.285156c0-4.832032-3.914062-8.75-8.75-8.75s-8.75 3.917968-8.75 8.75v22.285156h-30v-38.210938c0-4.835937-3.914062-8.75-8.75-8.75s-8.75 3.914063-8.75 8.75v38.210938h-30v-54.140625c0-4.832031-3.914062-8.75-8.75-8.75s-8.75 3.917969-8.75 8.75v54.140625h-38.75v17.5h38.75zm0 0"/><path d="m110.375 103.289062c14.410156.007813 26.09375-11.679687 26.09375-26.085937 0-14.414063-11.679688-26.101563-26.09375-26.101563-14.40625 0-26.09375 11.6875-26.09375 26.09375.019531 14.40625 11.691406 26.082032 26.09375 26.09375zm0 0"/><path d="m5.734375 125.632812c6.417969 1.355469 12.042969 5.195313 15.632813 10.695313 3.546874 5.46875 4.757812 12.128906 3.355468 18.492187l-17.972656 82.757813c-4.46875 20.574219.613281 42.070313 13.832031 58.464844 13.210938 16.398437 33.136719 25.929687 54.199219 25.929687 40.085938 0 75.695312-28.820312 84.679688-68.53125l21.238281-98.398437c.789062-3.691407 3.867187-6.453125 7.617187-6.855469 2.332032-.25 4.453125-.621094 6.707032-1.003906 1.496093-.261719 2.984374-.523438 4.628906-.769532l123.761718-18.460937c15.28125-2.378906 26.5625-15.523437 26.585938-30.992187v-51.945313c-.042969-15.480469-11.351562-28.625-26.648438-30.988281l-124.402343-18.480469c-35.867188-5.304687-72.390625-4.199219-107.875 3.25l-91.074219 18.78125v101.1875c.09375 3.339844 2.464844 6.175781 5.734375 6.867187zm104.640625-92.03125c24.078125 0 43.59375 19.519532 43.59375 43.59375 0 24.078126-19.515625 43.59375-43.59375 43.59375s-43.59375-19.515624-43.59375-43.59375c.03125-24.0625 19.527344-43.5625 43.59375-43.59375zm-47.875 149.742188h67.5c4.835938 0 8.75 3.921875 8.75 8.75 0 4.835938-3.914062 8.75-8.75 8.75h-67.5c-4.835938 0-8.75-3.914062-8.75-8.75 0-4.828125 3.914062-8.75 8.75-8.75zm-5 31.25h57.5c4.835938 0 8.75 3.921875 8.75 8.75 0 4.835938-3.914062 8.75-8.75 8.75h-57.5c-4.835938 0-8.75-3.914062-8.75-8.75 0-4.828125 3.914062-8.75 8.75-8.75zm-6.25 32.5h47.5c4.835938 0 8.75 3.921875 8.75 8.75 0 4.835938-3.914062 8.75-8.75 8.75h-47.5c-4.835938 0-8.75-3.914062-8.75-8.75 0-4.828125 3.914062-8.75 8.75-8.75zm0 0"/></svg>