<?xml version="1.0" encoding="iso-8859-1"?>
<!-- Generator: Adobe Illustrator 19.0.0, SVG Export Plug-In . SVG Version: 6.00 Build 0)  -->
<svg version="1.1" id="Capa_1" xmlns="http://www.w3.org/2000/svg" xmlns:xlink="http://www.w3.org/1999/xlink" x="0px" y="0px"
	 viewBox="0 0 511.998 511.998" style="enable-background:new 0 0 511.998 511.998;" xml:space="preserve">
<path style="fill:#FF7B05;" d="M55.865,278.157l-21.481,9.654c-3.501,1.574-7.615,0.011-9.189-3.49L8.65,247.503
	c-1.574-3.501-0.011-7.615,3.49-9.189l21.481-9.654L55.865,278.157z"/>
<path style="fill:#FF6500;" d="M33.621,228.661l-15.931,7.16l10.074,22.415c2.951,6.566,0.02,14.281-6.546,17.232l0,0l3.979,8.853
	c1.574,3.501,5.688,5.064,9.189,3.49l21.48-9.654L33.621,228.661z"/>
<path style="fill:#555E6B;" d="M283.793,197l2.827,52.899c0.34,8.425-4.476,16.211-12.166,19.67l-34.286,15.421
	c-7.503,3.375-16.094-1.655-16.823-9.85l-3.873-48.611L76.341,293.222c8.696-3.908,18.676,1.793,19.727,11.269l17.84,160.929
	c2.387,21.536,25.071,34.493,44.834,25.611l5.912-2.657l76.198-34.245l21.296-9.571c6.042-2.716,8.74-9.816,6.024-15.858
	c-2.909-6.473-10.514-9.361-16.987-6.453c-6.352,2.855-13.633-1.36-14.32-8.29l-7.259-68.464
	c-1.614-16.264,7.345-31.741,22.253-38.441l34.254-15.395c17.802-8.001,28.651-26.332,27.097-45.788l-4.514-60.084"/>
<path style="fill:#363C44;" d="M134.785,295.724l47.498-21.346c4.107-1.846,8.809,0.9,9.22,5.384l13.493,147.255
	c0.421,4.597-2.123,8.955-6.334,10.847l-45.745,20.559c-4.076,1.832-8.75-0.859-9.212-5.303l-15.24-146.415
	C127.981,302.063,130.529,297.636,134.785,295.724z"/>
<path style="fill:#FF7B05;" d="M500.813,58.618L477.467,69.11l-17.99-40.03l23.346-10.492c2.685-1.207,5.84-0.008,7.046,2.677
	l13.621,30.307C504.696,54.257,503.498,57.411,500.813,58.618z"/>
<path style="fill:#FF6500;" d="M499.947,43.688L499.947,43.688c-8.866,3.985-19.284,0.027-23.269-8.839l-5.048-11.231l-12.154,5.462
	l17.991,40.03l23.346-10.492c2.685-1.207,3.883-4.361,2.677-7.046L499.947,43.688z"/>
<g>
	<polygon style="fill:#434B56;" points="308.695,185.786 283.793,197 284.983,219.267 310.354,207.865 	"/>
	<path style="fill:#434B56;" d="M219.472,226.529L76.341,293.222c8.602-3.866,18.448,1.678,19.675,10.971l125.162-56.251
		L219.472,226.529z"/>
</g>
<path style="fill:#FFE92F;" d="M448.757,22.477L39.07,206.599c-8.577,3.855-12.405,13.932-8.55,22.509l5.071,11.283l12.307,27.385
	l7.935,17.656c3.512,7.814,12.693,11.301,20.507,7.79l314.773-141.465c7.814-3.512,11.301-12.693,7.79-20.507l-0.956-2.127
	l82.148-36.919c5.247-2.358,7.589-8.524,5.231-13.771l-22.797-50.725C460.171,22.461,454.005,20.118,448.757,22.477z"/>
<path style="fill:#FFC600;" d="M485.326,78.433l-22.797-50.725c-2.358-5.248-8.524-7.59-13.772-5.231l-34.252,15.394l0,0
	c12.426,27.649,0.085,60.137-27.564,72.563l-41.586,18.689l0.956,2.126c3.512,7.814,0.025,16.995-7.789,20.507L53.355,279.917
	l2.479,5.516c3.512,7.814,12.693,11.301,20.507,7.79l314.773-141.465c7.814-3.512,11.302-12.693,7.79-20.507l-0.956-2.127
	l82.147-36.919C485.342,89.846,487.684,83.68,485.326,78.433z"/>
<path style="fill:#FF7B05;" d="M88.732,155.555l-22.277,10.012c-2.72,1.222-3.926,4.423-2.69,7.137l10.346,23.305l32.09-14.422
	l-10.369-23.355C94.605,155.537,91.432,154.341,88.732,155.555z"/>
<path style="fill:#FF6500;" d="M95.833,158.231c-1.227-2.694-4.4-3.89-7.1-2.676l-7.224,3.247l0,0
	c3.143,7.079-0.027,15.366-7.091,18.541l-7.163,3.219l6.857,15.447l32.09-14.422L95.833,158.231z"/>
<path style="fill:#7A6CF7;" d="M462.529,27.708c-2.359-5.248-8.524-7.59-13.772-5.231l-222.131,99.83l30.382,22.789l214.876-96.57
	l0,0L462.529,27.708z"/>
<path style="fill:#6959E2;" d="M448.757,22.477l-5.552,2.495l-28.7,12.899l0,0c5.123,11.4,6.027,23.619,3.393,34.919l53.987-24.263
	l0,0l-9.356-20.818C460.171,22.461,454.005,20.118,448.757,22.477z"/>
<path style="fill:#F288E8;" d="M236.276,169.657l-110.358,49.597c-18.892,8.49-41.09,0.058-49.581-18.834l-3.952-8.794
	l178.772-80.344l3.952,8.794C263.6,138.969,255.168,161.167,236.276,169.657z"/>
<circle cx="162.458" cy="317.139" r="8.03"/>
<circle cx="171.148" cy="420.089" r="8.03"/>
<path d="M199.502,279.028c-0.43-4.684-3.111-8.897-7.172-11.269c-4.061-2.37-9.048-2.636-13.341-0.709l-47.496,21.346
	c-7.435,3.341-11.864,11.032-11.02,19.139l1.923,18.474c0.459,4.413,4.391,7.61,8.821,7.158c4.413-0.46,7.617-4.41,7.158-8.821
	l-1.923-18.474c-0.124-1.195,0.528-2.329,1.624-2.822l45.614-20.501l13.304,145.2c0.109,1.181-0.546,2.301-1.627,2.787
	l-43.886,19.723l-9.426-90.551c-0.459-4.413-4.393-7.614-8.821-7.158c-4.413,0.459-7.617,4.409-7.158,8.821l9.637,92.578
	c0.483,4.643,3.187,8.806,7.232,11.135c2.24,1.29,4.76,1.942,7.286,1.941c2.035,0,4.076-0.423,5.976-1.277l45.745-20.559
	c7.338-3.299,11.774-10.897,11.04-18.907L199.502,279.028z"/>
<path d="M510.816,48.279l-13.621-30.308c-1.463-3.255-4.107-5.746-7.443-7.013c-3.34-1.27-6.969-1.159-10.223,0.303l-14.658,6.587
	c-1.561-1.307-3.334-2.373-5.293-3.117c-4.608-1.752-9.621-1.602-14.115,0.418L108.472,166.601l-5.33-11.699
	c-3.049-6.696-10.99-9.691-17.702-6.674l-22.279,10.011c-3.279,1.475-5.784,4.14-7.052,7.503c-1.268,3.364-1.145,7.018,0.345,10.291
	l5.274,11.575l-25.95,11.664c-6.105,2.743-10.776,7.7-13.153,13.958c-1.502,3.954-1.968,8.127-1.419,12.205L8.85,230.988
	c-3.651,1.641-6.445,4.605-7.866,8.346c-1.421,3.742-1.3,7.813,0.341,11.462l16.546,36.817c1.64,3.65,4.604,6.443,8.344,7.864
	c1.731,0.658,3.531,0.985,5.328,0.985c2.089,0,4.173-0.443,6.135-1.325l11.455-5.148c4.155,7.947,12.34,12.628,20.885,12.627
	c3.221,0,6.493-0.664,9.616-2.068h0.001c1.774-0.799,3.762-0.703,5.452,0.264c1.69,0.965,2.783,2.628,2.998,4.563l17.839,160.929
	c1.425,12.847,8.678,23.892,19.901,30.302c6.184,3.533,12.966,5.312,19.783,5.312c5.555,0,11.133-1.182,16.426-3.561l103.406-46.473
	c4.879-2.192,8.613-6.154,10.512-11.156c1.9-5.002,1.738-10.443-0.455-15.322c-4.719-10.502-17.104-15.207-27.606-10.486
	c-0.834,0.373-1.529,0.151-1.967-0.101c-0.437-0.252-0.976-0.745-1.072-1.709l-7.254-68.41c-1.274-12.845,5.78-25.03,17.553-30.321
	l34.255-15.395c20.847-9.368,33.631-30.971,31.811-53.747l-4.067-51.432l77.258-34.721c10.048-4.517,15.389-15.258,13.523-25.642
	l34.83-15.653c4.047-1.819,5.853-6.573,4.034-10.619c-1.818-4.048-6.574-5.849-10.619-4.034l-41.521,18.66
	c-4.047,1.819-5.853,6.573-4.034,10.619l0.956,2.128c1.69,3.761,0.006,8.196-3.755,9.887l-82.414,37.039
	c-0.001,0.001-0.003,0.001-0.004,0.001l-65.647,29.503c-1.397,0.236-2.652,0.821-3.689,1.658l-17.38,7.811l-2.505,1.125
	c-0.003,0.002-0.006,0.004-0.009,0.005L150.695,251l-77.607,34.878c-0.013,0.006-0.026,0.012-0.039,0.017
	c-0.001,0.001-0.002,0.001-0.003,0.002c-3.757,1.686-8.193,0.002-9.884-3.757l-2.708-6.026c-0.002-0.005-0.004-0.01-0.006-0.015
	l-22.245-49.496c-0.002-0.003-0.004-0.007-0.005-0.01l-0.349-0.778c-0.984-2.191-1.057-4.634-0.204-6.881
	c0.853-2.246,2.529-4.025,4.72-5.009l25.988-11.68l0.659,1.467c4.986,11.094,13.994,19.583,25.364,23.902
	c5.258,1.997,10.728,2.992,16.189,2.992c6.348-0.001,12.683-1.346,18.647-4.027l110.358-49.597
	c11.094-4.986,19.583-13.993,23.902-25.363c0.093-0.245,0.172-0.493,0.26-0.739l23.354-10.495c4.047-1.818,5.853-6.573,4.034-10.619
	c-1.818-4.047-6.575-5.85-10.619-4.034l-14.166,6.366c-0.389-5.224-1.687-10.395-3.898-15.315l-0.659-1.467l190.274-85.513
	c0.744-0.334,1.404-0.213,1.823-0.054c0.422,0.16,0.994,0.507,1.328,1.252l6.063,13.492l-148.818,66.881
	c-4.047,1.819-5.853,6.573-4.034,10.619c1.338,2.978,4.265,4.742,7.331,4.742c1.101,0,2.219-0.228,3.288-0.708L467.85,59.145
	l10.148,22.581c0.335,0.744,0.214,1.403,0.054,1.823s-0.506,0.993-1.251,1.327l-7.389,3.302c-4.047,1.819-5.853,6.573-4.034,10.619
	c1.819,4.048,6.577,5.852,10.619,4.034l7.388-3.302c4.495-2.02,7.935-5.669,9.685-10.276c1.75-4.606,1.601-9.619-0.419-14.114
	l-1.514-3.368l12.967-5.828h0.001c3.255-1.463,5.746-4.107,7.013-7.443C512.387,55.165,512.28,51.534,510.816,48.279z
	 M305.201,246.509c1.281,16.031-7.714,31.23-22.382,37.821l-34.255,15.395c-18.08,8.126-28.911,26.837-26.948,46.614l7.253,68.41
	c0.577,5.819,3.943,11.043,9.004,13.972c5.061,2.932,11.268,3.248,16.602,0.851c2.422-1.087,5.28-0.003,6.368,2.419
	c0.586,1.302,0.307,2.458,0.09,3.031c-0.218,0.573-0.777,1.621-2.079,2.207l-103.406,46.475c-7.051,3.167-14.945,2.785-21.656-1.047
	c-6.713-3.834-11.05-10.44-11.903-18.123l-17.839-160.93c-0.493-4.444-2.248-8.497-5.013-11.777l9.222-4.145l104.154-46.809
	l2.929,34.978c0.572,6.432,4.241,12.22,9.814,15.483c3.103,1.817,6.601,2.736,10.108,2.736c2.79,0,5.588-0.582,8.198-1.756
	l34.286-15.421c10.738-4.83,17.371-15.553,16.898-27.318c-0.002-0.044-0.004-0.088-0.006-0.132l-2.516-44.393l9.462-4.253
	L305.201,246.509z M271.159,262.243h0.001l-34.287,15.421c-1.608,0.725-2.945,0.19-3.598-0.192
	c-0.654-0.383-1.773-1.286-1.926-3.002l-3.398-40.577l6.574-2.952l1.662,13.16c1.104,8.752,7.224,16.218,15.59,19.019
	c0.846,0.283,1.706,0.417,2.551,0.417c3.359,0,6.491-2.124,7.616-5.485c1.408-4.207-0.861-8.758-5.067-10.167
	c-2.55-0.853-4.415-3.128-4.752-5.795l-2.277-18.03l26.585-11.939l2.163,38.159C278.78,255.434,275.866,260.126,271.159,262.243z
	 M32.08,280.04l-15.659-34.843l10.42-4.683L42.5,275.357L32.08,280.04z M72.18,171.8l17.436-7.836l4.202,9.223l-7.282,3.273
	l-10.154,4.564L72.18,171.8z M232.983,162.33l-110.358,49.597c-7.18,3.227-15.187,3.466-22.546,0.669
	c-7.359-2.796-13.189-8.289-16.416-15.469l-0.659-1.467l164.119-73.758l0.659,1.466c2.64,5.874,3.276,12.302,1.891,18.475
	c-0.334,0.755-0.552,1.558-0.643,2.383c-0.177,0.566-0.366,1.129-0.578,1.688C245.656,153.274,240.163,159.103,232.983,162.33z
	 M484.554,57.12l-5.338-11.876c-0.001-0.003-0.002-0.007-0.004-0.01c-0.002-0.003-0.003-0.006-0.005-0.009l-6.06-13.482l10.502-4.72
	l11.407,25.376L484.554,57.12z"/>
<g>
</g>
<g>
</g>
<g>
</g>
<g>
</g>
<g>
</g>
<g>
</g>
<g>
</g>
<g>
</g>
<g>
</g>
<g>
</g>
<g>
</g>
<g>
</g>
<g>
</g>
<g>
</g>
<g>
</g>
</svg>
